<svg width="88" height="56" viewBox="0 0 88 56" fill="none" xmlns="http://www.w3.org/2000/svg">
<path fill="#FCFCFC" d="M83.3,1.6c-11,5.3-34-9.7-32,10.7c1,10.7,12,19.3,9,31.1c-2,7.5-10,9.7-17,10.7c8,0,15-3.2,19-9.7
	c6-12.9-10-23.6-7-35.5c2-11.8,17,1.1,27-3.2c-2,10.7-12,21.5-23,14c14,10.7,26-5.4,27-19.5L83.3,1.6z"/>
<path fill="#FCFCFC" d="M3.3,1.6c11,5.3,34-9.7,32,10.7c-1,10.7-12,19.3-9,31.1c2,7.5,10,9.7,17,10.7c-8,0-15-3.2-19-9.7
	c-6-12.9,10-23.6,7-35.5c-2-11.8-17,1.1-27-3.2c2,10.7,12,21.5,23,14c-14,10.7-26-5.4-27-19.5L3.3,1.6z"/>

			<ellipse fill="#FCFCFC" cx="39.5" cy="44.1" rx="1.8" ry="1.9"/>
			<ellipse fill="#FCFCFC" cx="46.5" cy="44.1" rx="1.8" ry="1.9"/>

		<path fill="#FCFCFC" d="M43,50.2c0.5,0,0.9,0,1.4-0.1s0.9-0.1,1.3-0.2c0.9-0.2,1.7-0.5,2.4-0.9c0.7-0.4,1.2-1,1.5-1.7
			c0.1-0.3,0.2-0.7,0.2-1.1c0-0.4,0-0.8-0.1-1.2c-0.1-0.8-0.4-1.6-0.8-2.3c-0.4-0.7-1-1.3-1.6-1.8c-1.2-1-2.8-1.5-4.3-1.5
			c-0.8,0-1.5,0.1-2.3,0.4c-0.7,0.3-1.4,0.6-2,1.1c-0.6,0.5-1.2,1.1-1.6,1.8c-0.4,0.7-0.7,1.4-0.8,2.3c-0.1,0.4-0.1,0.8-0.1,1.2
			c0,0.4,0.1,0.8,0.2,1.1c0.2,0.7,0.8,1.3,1.5,1.7c0.7,0.5,1.5,0.7,2.4,0.9c0.4,0.1,0.9,0.2,1.3,0.2C42.1,50.1,42.5,50.2,43,50.2
			c-0.9,0.3-1.8,0.4-2.8,0.5c-0.9,0-1.9-0.1-2.9-0.4c-0.5-0.2-1-0.4-1.4-0.8c-0.4-0.4-0.8-0.8-1.1-1.3c-0.3-0.5-0.5-1.1-0.5-1.7
			c-0.1-0.6-0.1-1.2-0.1-1.7c0.1-1.1,0.4-2.3,0.9-3.3c0.5-1,1.2-1.9,2-2.6c0.8-0.7,1.8-1.3,2.8-1.7c1-0.4,2-0.6,3.1-0.6
			c1,0,2.1,0.2,3.1,0.6c1,0.4,1.9,0.9,2.8,1.7c0.8,0.7,1.5,1.6,2,2.6c0.5,1,0.8,2.2,0.9,3.3c0,0.5,0,1.1-0.1,1.7
			c-0.1,0.6-0.3,1.2-0.5,1.7s-0.7,1-1.1,1.3c-0.4,0.4-0.9,0.6-1.4,0.8c-1,0.4-1.9,0.5-2.9,0.4C44.8,50.6,43.9,50.5,43,50.2z"/>
<path fill="#FCFCFC" d="M40,21.4c0.1,0.2,0.1,0.4,0.1,0.6c0,0.8-0.5,1.4-1,1.4s-1-0.6-1-1.4c0-0.8,0.5-1.4,1-1.4
	c0.2,0,0.4,0.1,0.6,0.3c-0.5-0.6-1.1-0.9-1.8-0.9c-1.5,0-2.7,1.6-2.7,3.6s1.2,3.6,2.7,3.6s2.7-1.6,2.7-3.6
	C40.6,22.7,40.4,22,40,21.4z"/>
<path fill="#FCFCFC" d="M49.6,21.4c0.1,0.2,0.1,0.4,0.1,0.6c0,0.8-0.5,1.4-1,1.4s-1-0.6-1-1.4c0-0.8,0.5-1.4,1-1.4
	c0.2,0,0.4,0.1,0.6,0.3c-0.5-0.6-1.1-0.9-1.8-0.9c-1.5,0-2.7,1.6-2.7,3.6s1.2,3.6,2.7,3.6s2.7-1.6,2.7-3.6
	C50.2,22.7,50,22,49.6,21.4z"/>
  <path fill="#FCFCFC" d="M43,34.9c2.2,0,4.3,0.5,6.2,1.3c-1.4-1.5-3.6-2.5-6.2-2.5s-4.7,1-6.2,2.5C38.7,35.4,40.8,34.9,43,34.9z"/>

</svg>
